<svg width="1400" height="360" viewBox="0 0 1400 360" fill="none" xmlns="http://www.w3.org/2000/svg" role="img" aria-labelledby="title desc">
  <title id="title">Codex Research Stack logo lockup</title>
  <desc id="desc">The Codex Research Stack logo with brand mark, name, and tagline.</desc>
  <rect width="1400" height="360" rx="48" fill="#071318"/>
  <g transform="translate(72 60) scale(0.47)">
    <rect width="512" height="512" rx="112" fill="#071318"/>
    <path d="M256 42L421.411 137.5V328.5L256 424L90.5891 328.5V137.5L256 42Z" fill="#0D2228" stroke="#E3B55F" stroke-width="16"/>
    <path d="M256 82L386.77 157.5V308.5L256 384L125.23 308.5V157.5L256 82Z" fill="#0A181D" stroke="#67D1C7" stroke-opacity="0.72" stroke-width="6"/>
    <path d="M315.5 181.5C299.1 164.8 277.3 156.4 250.1 156.4C226.6 156.4 207.1 163.8 191.6 178.6C176.1 193.2 168.3 212.2 168.3 235.6C168.3 259.2 176.1 278.5 191.6 293.5C207.1 308.3 226.6 315.7 250.1 315.7C277.2 315.7 299 307.2 315.5 290.2L286.7 258.7C277.3 267.8 265.8 272.3 252.2 272.3C241.1 272.3 232.2 268.9 225.5 262.1C218.8 255.1 215.4 246.3 215.4 235.6C215.4 224.9 218.8 216.2 225.5 209.5C232.2 202.6 241.1 199.2 252.2 199.2C265.7 199.2 277.2 203.8 286.7 213L315.5 181.5Z" fill="#F6EFE1"/>
    <path d="M335.6 335.6L214.1 298.1L176.6 176.6L298.1 214.1L335.6 335.6Z" stroke="#E3B55F" stroke-width="13" stroke-linejoin="round"/>
    <path d="M262.5 249.5L298.1 214.1L286.4 260.4L262.5 249.5Z" fill="#E3B55F"/>
  </g>
  <text x="348" y="154" fill="#F6EFE1" font-family="Georgia, 'Times New Roman', serif" font-size="74" letter-spacing="-1">Codex Research Stack</text>
  <text x="352" y="214" fill="#E3B55F" font-family="Inter, Segoe UI, Arial, sans-serif" font-size="30" font-weight="650">Multi-agent research workflows for serious scholarship</text>
  <g transform="translate(352 252)">
    <rect x="0" y="0" width="164" height="42" rx="21" fill="#0E3A3F" stroke="#67D1C7" stroke-opacity="0.65"/>
    <text x="22" y="27" fill="#C9F2EC" font-family="Inter, Segoe UI, Arial, sans-serif" font-size="18" font-weight="700">Route first</text>
    <rect x="182" y="0" width="172" height="42" rx="21" fill="#0E3A3F" stroke="#67D1C7" stroke-opacity="0.65"/>
    <text x="204" y="27" fill="#C9F2EC" font-family="Inter, Segoe UI, Arial, sans-serif" font-size="18" font-weight="700">Verify evidence</text>
    <rect x="372" y="0" width="186" height="42" rx="21" fill="#412B0F" stroke="#E3B55F" stroke-opacity="0.72"/>
    <text x="394" y="27" fill="#FFE2A3" font-family="Inter, Segoe UI, Arial, sans-serif" font-size="18" font-weight="700">Publish clearly</text>
  </g>
</svg>
