<svg xmlns="http://www.w3.org/2000/svg" width="1280" height="720" viewBox="0 0 1280 720" role="img" aria-label="Multi-agent dispatch board">
  <rect width="1280" height="720" fill="#071318"/>
  <circle cx="110" cy="120" r="260" fill="#6cdad1" opacity=".08"/>
  <circle cx="1110" cy="620" r="260" fill="#e5b75d" opacity=".08"/>
  <rect x="74" y="72" width="1132" height="576" rx="34" fill="#08191e" stroke="#2d686a" stroke-width="2"/>
  <text x="120" y="142" fill="#eaf3f1" font-family="Segoe UI, Arial, sans-serif" font-size="44" font-weight="700">Dispatch board</text>
  <text x="122" y="188" fill="#b7cac6" font-family="Segoe UI, Arial, sans-serif" font-size="24">Work is split into roles, outputs, and a target-specific review gate.</text>
  <g font-family="Segoe UI, Arial, sans-serif">
    <rect x="132" y="276" width="230" height="248" rx="24" fill="#0d252b" stroke="#2d686a" stroke-width="2"/>
    <text x="164" y="336" fill="#6cdad1" font-size="30" font-weight="700">Producer</text>
    <text x="164" y="386" fill="#eaf3f1" font-size="26">writes output</text>
    <rect x="452" y="276" width="230" height="248" rx="24" fill="#3a2912" stroke="#8b671f" stroke-width="2"/>
    <text x="484" y="336" fill="#e5b75d" font-size="30" font-weight="700">Reviewer</text>
    <text x="484" y="386" fill="#eaf3f1" font-size="26">checks gate</text>
    <rect x="772" y="276" width="230" height="248" rx="24" fill="#0d252b" stroke="#2d686a" stroke-width="2"/>
    <text x="804" y="336" fill="#6cdad1" font-size="30" font-weight="700">Outputs</text>
    <text x="804" y="386" fill="#eaf3f1" font-size="26">files + JSON</text>
    <rect x="1034" y="276" width="114" height="248" rx="24" fill="#0d252b" stroke="#2d686a" stroke-width="2"/>
    <text x="1058" y="336" fill="#6cdad1" font-size="30" font-weight="700">State</text>
    <text x="1058" y="386" fill="#eaf3f1" font-size="24">next</text>
    <path d="M362 400H452M682 400H772M1002 400H1034" stroke="#6cdad1" stroke-width="5"/>
  </g>
</svg>
